<svg xmlns="http://www.w3.org/2000/svg" width="13" height="12"><path fill="#35B83B" fill-rule="nonzero" d="M12.768 5.333c0 1.065-.416 2.05-1.123 2.862L7.911 4.417l3.082-2.576c1.098.901 1.775 2.133 1.775 3.492zM4.802 6.41l5.81-4.855C9.518.794 8.093.334 6.533.334c-2.267 0-4.25.97-5.342 2.421L4.802 6.41zm-2.81 2.349l2.452-2.05-3.519-3.56A4.184 4.184 0 0 0 .3 5.332c0 1.326.644 2.53 1.693 3.425zm9.333-.226L7.553 4.716 4.834 6.988l-.056.057-.005.028-.799.7h-.033l-1.148.905-.437.374c.086.062.183.119.274.177a8.284 8.284 0 0 1-.991 1.898c1.095.476 2.345-.253 3.223-.977a7.693 7.693 0 0 0 1.67.183c1.927 0 3.65-.7 4.793-1.801z"/></svg>