<svg xmlns="http://www.w3.org/2000/svg" width="13" height="13"><path fill="#58A5B6" fill-rule="nonzero" d="M.422 4.303h2.693v8.086H.422V4.303zm11.53.739c.565.617.848 1.521.848 2.713v4.634h-2.685V8.064c0-.57-.11-1.018-.33-1.342-.22-.323-.565-.485-1.032-.485-.343 0-.63.094-.861.281-.231.188-.404.42-.518.698-.06.163-.09.384-.09.66v4.513H4.6c.01-2.17.016-3.93.016-5.279 0-1.349-.003-2.154-.008-2.415L4.6 4.303h2.684v1.15c.104-.163.21-.308.318-.432.114-.13.268-.272.461-.424.193-.152.43-.27.71-.355.28-.084.592-.126.934-.126.93 0 1.679.308 2.244.926zM1.784.412c.451 0 .813.131 1.085.395s.41.597.416 1c.005.397-.132.728-.412.995-.28.266-.649.4-1.106.4h-.016c-.446 0-.805-.134-1.077-.4a1.337 1.337 0 0 1-.408-.995c0-.403.14-.736.42-1 .28-.264.646-.396 1.098-.396z"/></svg>