<svg xmlns="http://www.w3.org/2000/svg" width="13" height="15"><path fill="#921616" fill-rule="nonzero" d="M6.879 0C2.86 0 .834 2.88.834 5.284c0 1.454.55 2.748 1.732 3.23.194.08.367.003.423-.211.04-.148.132-.523.173-.679.057-.212.035-.286-.122-.471-.34-.402-.558-.922-.558-1.659 0-2.137 1.6-4.05 4.164-4.05 2.271 0 3.52 1.387 3.52 3.24 0 2.44-1.08 4.498-2.682 4.498-.885 0-1.547-.732-1.335-1.63.254-1.071.746-2.227.746-3.001 0-.692-.371-1.27-1.14-1.27-.905 0-1.631.936-1.631 2.19 0 .798.27 1.338.27 1.338l-1.088 4.609c-.323 1.368-.049 3.044-.026 3.213.014.1.143.125.202.05.083-.11 1.16-1.44 1.526-2.769.104-.376.595-2.324.595-2.324.294.56 1.153 1.053 2.067 1.053 2.718 0 4.563-2.478 4.563-5.796C12.233 2.336 10.108 0 6.879 0z"/></svg>