<svg xmlns="http://www.w3.org/2000/svg" width="15" height="13"><path fill="#506375" fill-rule="nonzero" d="M10.56 7.213a.777.777 0 0 1 .054.284.905.905 0 0 1-.178.531.844.844 0 0 1-.45.318h.001l-.004.002h-.002a.806.806 0 0 1-.261.043.928.928 0 0 1-.567-.2.852.852 0 0 1-.318-.518v-.002s0-.002-.002-.002h.001a.776.776 0 0 1-.018-.165c0-.185.063-.362.167-.509a.874.874 0 0 1 .42-.321h.002l.002-.001a.867.867 0 0 1 .3-.054c.183 0 .365.056.517.158a.84.84 0 0 1 .335.43c0 .001 0 .002.002.003v.003zm-.562 2.269a.448.448 0 0 0-.244-.075.382.382 0 0 0-.211.064 4.099 4.099 0 0 1-2.08.575 3.575 3.575 0 0 1-1.578-.357h-.003l-.002-.002c-.074-.03-.159-.094-.25-.156a.913.913 0 0 0-.15-.082.393.393 0 0 0-.347.001.393.393 0 0 0-.196.163.468.468 0 0 0-.012.465c.036.066.09.123.162.162.702.473 1.528.688 2.357.687.748 0 1.5-.173 2.17-.488l.004-.002.003-.002c.088-.053.206-.1.316-.168a.698.698 0 0 0 .154-.127.482.482 0 0 0 .104-.193.391.391 0 0 0-.028-.273.47.47 0 0 0-.17-.192zM5.072 8.344a.93.93 0 0 0 .895-.195.833.833 0 0 0 .282-.616v-.02-.035a.84.84 0 0 0-.279-.615.919.919 0 0 0-.616-.247.814.814 0 0 0-.184.021h-.003a.896.896 0 0 0-.668.598v.002a.818.818 0 0 0-.041.258c0 .19.062.374.17.526.107.15.259.267.44.322h.004zm9.5-2.21v.001a1.739 1.739 0 0 1-.29 1.042c-.17.261-.406.48-.678.628.018.136.028.273.028.41 0 .737-.255 1.46-.697 2.04v.001c-.818 1.088-2.074 1.729-3.341 2.052l-.002.001a8.788 8.788 0 0 1-2.07.248 8.187 8.187 0 0 1-3.045-.576h-.001c-1.005-.414-1.961-1.072-2.548-2.036a3.318 3.318 0 0 1-.49-1.725c0-.137.01-.274.028-.41a1.968 1.968 0 0 1-.663-.612 1.802 1.802 0 0 1-.31-.923V6.27c0-.47.203-.914.52-1.242.317-.328.75-.542 1.214-.542h.02a1.92 1.92 0 0 1 .836.118l.002.001c.19.08.377.176.545.31.055-.03.114-.061.18-.087 1.017-.602 2.2-.834 3.352-.901.01-.57.08-1.168.358-1.691a1.759 1.759 0 0 1 1.113-.89l.002-.001h.003a2.89 2.89 0 0 1 .55-.052c.486 0 .967.115 1.417.295.2-.3.484-.535.818-.667l.003-.002.003-.001c.196-.061.403-.097.61-.097.22 0 .44.04.648.133V.953l.004.002c.297.114.548.326.726.588a1.623 1.623 0 0 1 .272 1.083v.005c-.035.419-.248.787-.549 1.05a1.687 1.687 0 0 1-1.096.422 1.47 1.47 0 0 1-.195-.012 1.63 1.63 0 0 1-1.044-.51 1.577 1.577 0 0 1-.45-1.084l.002-.06c-.374-.167-.772-.305-1.167-.305a1.7 1.7 0 0 0-.171.009h-.001a.894.894 0 0 0-.704.483v.001c-.203.394-.243.855-.249 1.312 1.134.074 2.275.346 3.276.921h.001l.014.009.086.047c.07-.055.142-.113.225-.162a1.846 1.846 0 0 1 1.022-.303c.16 0 .32.02.474.06l.007.002.006.001c.366.094.698.304.947.588.25.284.417.643.45 1.033zm-3.34-3.712l.001.047v.003c.008.197.1.38.242.516.142.135.33.22.522.22h.005a.785.785 0 0 0 .57-.217.76.76 0 0 0 .247-.519V2.47a.766.766 0 0 0-.244-.589.804.804 0 0 0-.547-.233.635.635 0 0 0-.19.028h-.001l-.002.001a.835.835 0 0 0-.426.277.739.739 0 0 0-.178.468zM2.86 5.462a1.107 1.107 0 0 0-.464-.12.729.729 0 0 0-.078.004h-.007a.967.967 0 0 0-.616.26.856.856 0 0 0-.288.594v.004a.796.796 0 0 0 .116.46c.053.093.125.178.206.252.26-.57.667-1.052 1.13-1.454zm9.88 2.785c0-.508-.183-1.017-.48-1.428-.591-.822-1.508-1.359-2.462-1.658l-.006-.002a7.665 7.665 0 0 0-2.254-.339c-.767 0-1.534.114-2.268.34-.953.303-1.873.836-2.463 1.66v.001a2.475 2.475 0 0 0-.474 1.433c0 .188.023.375.073.558.108.41.318.775.59 1.093a4.22 4.22 0 0 0 1.19.952c1.018.568 2.19.818 3.354.818.197 0 .395-.007.59-.022 1.173-.096 2.35-.442 3.301-1.15a3.71 3.71 0 0 0 .806-.803 2.6 2.6 0 0 0 .458-1.027V8.67c.03-.14.045-.282.045-.424zm.925-2.02a.756.756 0 0 0-.09-.36l-.002-.001v-.002a.881.881 0 0 0-.369-.386 1.069 1.069 0 0 0-.522-.133c-.166 0-.33.037-.477.11.465.405.874.89 1.137 1.462a.953.953 0 0 0 .212-.264.91.91 0 0 0 .11-.426z"/></svg>