<svg xmlns="http://www.w3.org/2000/svg" width="13" height="11"><path fill="#2D97BF" fill-rule="nonzero" d="M12.497 1.555c-.44.211-.91.355-1.405.42.505-.33.892-.853 1.075-1.474a4.695 4.695 0 0 1-1.554.647A2.352 2.352 0 0 0 8.827.306C7.476.306 6.38 1.5 6.38 2.97c0 .209.022.413.064.607C4.41 3.467 2.608 2.405 1.4.793c-.21.393-.33.85-.33 1.34 0 .924.431 1.74 1.087 2.217a2.297 2.297 0 0 1-1.108-.334v.033c0 1.29.844 2.368 1.962 2.613-.205.06-.42.093-.644.093-.158 0-.311-.017-.46-.05.31 1.06 1.214 1.83 2.284 1.852A4.66 4.66 0 0 1 .57 9.659a6.512 6.512 0 0 0 3.75 1.199c4.501 0 6.961-4.06 6.961-7.582l-.008-.345c.48-.373.897-.842 1.224-1.376z"/></svg>