<svg width="135" height="35" viewBox="0 0 135 35" xmlns="http://www.w3.org/2000/svg"><path d="M38.406 34.623c1.716-.4 3.085-1.013 4.308-1.926 2.975-2.222 4.606-5.63 4.756-9.94.149-4.25-1.133-7.872-3.611-10.208-2.012-1.896-4.547-2.804-7.823-2.804-3.474 0-6.272 1.077-8.424 3.243-2.305 2.32-3.525 5.556-3.525 9.355 0 3.94 1.102 7.122 3.239 9.35 1.178 1.23 2.325 1.966 3.969 2.551.581.207 1.01.306 2.564.595.133.025 1.025.03 1.983.01 1.297-.025 1.951-.083 2.564-.226zm-3.671-1.375c-1.59-.721-2.716-2.912-3.28-6.38-.359-2.198-.393-7.085-.066-9.48.458-3.364 1.426-5.351 2.932-6.022 1.033-.46 2.465-.188 3.385.643 2.044 1.847 3.076 7.098 2.63 13.39-.319 4.515-1.298 6.964-3.126 7.815-.663.308-1.835.324-2.475.034zm45.61 1.504c2.939-.44 5.094-1.45 6.92-3.24 2.639-2.587 3.91-6.238 3.738-10.738-.088-2.317-.467-3.83-1.427-5.708-1.3-2.544-3.526-4.328-6.052-4.854-1.895-.394-4.334-.085-6.187.784-.462.216-.905.393-.983.393-.125 0-.138-.716-.107-5.643l.037-5.643-.388.078c-.214.043-2.391.449-4.839.902-2.447.453-4.545.846-4.662.873-.177.042-.209.11-.19.412.022.338.05.368.406.447 1.226.27 1.445.366 1.9.837.56.577.812 1.314.977 2.852.132 1.225.162 22.337.036 25.453l-.075 1.848.998.213c3.777.808 7.543 1.087 9.898.734zm-3.451-1.472c-.196-.02-.405-.096-.465-.169-.166-.2-.346-13.333-.235-17.175l.088-3.047.774-.223c1.141-.33 2.37-.278 3.242.135 1.75.83 2.9 2.878 3.497 6.231.195 1.092.166 4.886-.047 6.236-.445 2.819-1.254 4.995-2.38 6.4-.547.681-1.454 1.326-2.163 1.536-.458.136-1.438.169-2.311.076zm30.102 1.469c2.241-.364 4.449-1.44 6.035-2.942.87-.823 1.157-1.22 1.037-1.428-.323-.555-.309-.554-1.132-.049-1.312.806-1.969 1.028-3.51 1.186-1.798.185-3.458-.116-4.992-.905-1.017-.523-2.236-1.726-2.845-2.808-.832-1.477-1.283-3.202-1.418-5.419-.056-.93-.044-1.163.065-1.232.075-.047 3.3-.086 7.222-.087l7.086-.001v-.28c0-.636-.209-2.347-.396-3.244-.753-3.605-2.74-6.176-5.574-7.21-1.128-.412-2.195-.585-3.601-.585-3.332 0-6.054 1.093-8.159 3.276-1.678 1.741-2.674 3.697-3.282 6.446-.183.829-.214 1.26-.214 3 0 1.727.032 2.172.21 2.971 1.127 5.074 4.466 8.416 9.262 9.272 1.215.217 3.006.233 4.206.039zm-6.804-15.307c-.073-.118.108-1.84.286-2.732.43-2.15 1.12-3.702 2.07-4.658.51-.514.743-.675 1.159-.798.286-.085.61-.155.72-.154.445 0 .969.227 1.358.587 1.047.964 1.646 3.035 1.764 6.101l.059 1.514-1.006.056c-2.02.112-6.357.17-6.41.084zm26.445 15.316c4.11-.625 6.765-2.829 7.46-6.196.337-1.627.18-3.435-.402-4.644-.815-1.693-2.193-2.715-5.606-4.158-2.535-1.072-4.055-1.98-4.677-2.797-.514-.674-.682-1.192-.675-2.09.01-1.357.525-2.395 1.506-3.043.821-.542 1.85-.674 3.05-.392 1.448.342 2.537 1.23 3.52 2.874.314.523.957 1.992 1.27 2.898.05.14.105.146.443.047.213-.063.417-.145.453-.181.037-.037.035-1.423-.005-3.08l-.072-3.013-.35-.15c-.593-.25-2.14-.67-3.157-.858-.767-.14-1.44-.177-3.241-.175-2.15.002-2.325.016-3.213.257-2.578.7-4.49 2.155-5.49 4.178-.53 1.076-.713 1.905-.707 3.2.008 1.841.51 3.2 1.619 4.387.954 1.021 2.195 1.75 4.308 2.53 1.663.614 3.38 1.472 4.03 2.013.383.318.683.68.907 1.094.319.588.335.666.335 1.586 0 .887-.025 1.022-.307 1.616-.735 1.552-2.205 2.322-4.132 2.165-2.617-.214-4.46-1.945-5.96-5.6-.391-.952-.418-.972-1.013-.746l-.273.104.068 3.407c.061 3.025.087 3.422.231 3.532.43.33 3.215.991 5.146 1.222 1.5.179 3.8.185 4.934.013zM17.412 33.689c0-.293-.026-.532-.058-.532-.461 0-2.61-.463-2.954-.637-1.229-.619-1.797-2.089-2.017-5.221-.157-2.227-.313-8.769-.211-8.87.091-.091 4.182.071 4.66.186 1.321.316 2.34 1.617 2.85 3.638l.225.89.59.03.591.028V11.97h-.628c-.588 0-.63.014-.63.218 0 .366-.366 1.526-.714 2.258-.544 1.145-1.31 1.837-2.284 2.062-.24.055-1.37.143-2.512.196-1.61.075-2.094.07-2.155-.021-.112-.169.144-12.906.271-13.498l.048-.223 3.553.03 3.552.029.826.296c1.915.686 3.293 2.086 4.444 4.516.258.546.59 1.34.736 1.766.147.426.277.788.288.805.012.016.33-.064.707-.178l.684-.208-.048-3.16a280.226 280.226 0 0 0-.104-4.635L27.066.747H.086l.028.605.029.604.87.109c1.162.145 1.588.271 2.056.61.709.514 1.145 1.268 1.42 2.457.426 1.846.58 6.01.509 13.803-.076 8.236-.18 9.948-.705 11.61-.431 1.366-1.235 2.09-2.562 2.31-.366.06-.883.156-1.15.214l-.486.104v1.048H17.413v-.532zm44.6.008v-.524l-.75-.063c-1.73-.146-2.203-.32-2.657-.974-.659-.947-.802-2.696-.802-9.783v-5.53l.24-.256c.303-.322 1.249-.771 1.918-.91 1.358-.284 3.094-.04 4.452.627.39.19.725.33.745.311.04-.04 2.27-5.934 2.34-6.183.031-.113-.097-.211-.472-.361-.803-.322-1.5-.432-2.398-.38-2.403.14-4.535 1.736-6.071 4.545-.255.466-.519.848-.587.849-.098 0-.11-.535-.057-2.666l.066-2.666-.233.055c-.128.03-2.062.422-4.296.87-4.793.962-5.46 1.103-5.574 1.173-.047.03-.086.202-.086.384 0 .366-.043.345 1.047.52 1.497.24 2.025.97 2.249 3.105.29 2.782.174 13.629-.162 15.11-.173.757-.618 1.486-1.065 1.745-.166.096-.689.25-1.161.343l-.86.167-.029.508-.029.508h14.232v-.524z" fill="#33629A" fill-rule="nonzero"/></svg>