<svg width="128" height="38" viewBox="0 0 128 38" xmlns="http://www.w3.org/2000/svg"><path d="M68.858 27.796c-5.784 0-10.476-4.096-10.476-9.149 0-5.052 4.692-9.148 10.476-9.148 5.791 0 10.484 4.096 10.484 9.148 0 5.053-4.693 9.149-10.484 9.149zm39.589-3.617l18.542-19.547H88.812a1.423 1.423 0 0 0-1.37 1.352l-.002 3.942C83.878 4.155 76.895.232 68.858.232c-10.496 0-19.202 6.699-20.82 15.467V4.632H41.39c-1.58.022-2.996.732-4.002 1.807L24.52 20.748 11.65 6.438c-1.003-1.074-2.42-1.784-4.004-1.806H.996v28.572H8.76a1.453 1.453 0 0 0 1.37-1.396h.003V18.404l14.392 16.025 14.378-16.025.007 13.404c.026.75.621 1.358 1.366 1.396h7.762V21.597c1.618 8.769 10.324 15.467 20.82 15.467 11.653 0 21.095-8.245 21.095-18.417 0-1.73-.28-3.405-.791-4.993h16.82L87.49 33.204h38.071l.014.002.014-.002h.039a1.427 1.427 0 0 0 1.368-1.357h.008V24.18h-18.557z" fill="#53BCE7" fill-rule="evenodd"/></svg>