<svg width="145" height="40" viewBox="0 0 145 40" xmlns="http://www.w3.org/2000/svg"><g fill="none" fill-rule="evenodd"><path d="M0 .648h144.681v39.103H0z"/><g fill-rule="nonzero"><g fill="#4E5F8C"><path d="M12.27 25.893c0 1.55-.565 2.788-1.693 3.71-1.129.923-2.668 1.385-4.619 1.385-1.469 0-2.712-.298-3.728-.89C1.213 29.503.47 28.642 0 27.514l2.45-1.552c.34.812.817 1.417 1.428 1.817.611.399 1.363.598 2.256.598.987 0 1.774-.205 2.363-.616.587-.411.881-.976.881-1.692 0-.787-.268-1.387-.802-1.799-.535-.41-1.578-.893-3.129-1.445-1.516-.564-2.653-1.263-3.41-2.098-.759-.834-1.138-1.822-1.138-2.962 0-1.457.485-2.602 1.454-3.437.97-.834 2.324-1.251 4.064-1.251 1.269 0 2.327.259 3.173.775.846.518 1.522 1.316 2.027 2.398l-2.38 1.446c-.305-.706-.694-1.226-1.163-1.56-.47-.336-1.058-.503-1.763-.503-.81 0-1.445.185-1.904.555-.459.37-.688.873-.688 1.508 0 .646.238 1.187.714 1.621.476.435 1.343.858 2.6 1.269 1.857.6 3.194 1.314 4.01 2.142.818.827 1.226 1.883 1.226 3.164zM31.008 22.455H17.47c.105 1.821.643 3.234 1.612 4.24.97 1.004 2.265 1.506 3.887 1.506 1.234 0 2.283-.244 3.147-.732.864-.487 1.548-1.219 2.053-2.194l2.415 1.269c-.775 1.469-1.806 2.576-3.093 3.323-1.288.746-2.806 1.119-4.557 1.119-2.538 0-4.563-.828-6.073-2.486-1.51-1.657-2.266-3.849-2.266-6.575 0-2.539.8-4.648 2.398-6.329 1.598-1.68 3.567-2.52 5.905-2.52 2.398 0 4.348.77 5.853 2.309 1.504 1.54 2.256 3.56 2.256 6.064v1.006h.001zm-2.873-2.045c-.153-1.446-.694-2.571-1.622-3.376-.928-.804-2.133-1.207-3.614-1.207-1.421 0-2.626.414-3.613 1.243-.988.828-1.57 1.942-1.746 3.34h10.595zM44.053 13.394l-.688 2.856a2.582 2.582 0 0 0-.687-.291 3.136 3.136 0 0 0-.794-.098c-1.421 0-2.494.609-3.217 1.825-.723 1.217-1.084 3.035-1.084 5.456v7.298H34.71V13.588h2.873v2.961c.411-1.21 1.005-2.091 1.78-2.644.776-.552 1.81-.828 3.103-.828.305 0 .602.03.89.088.289.059.52.135.697.23zM63.338 21.89c0 2.656-.758 4.837-2.274 6.54-1.516 1.705-3.455 2.557-5.818 2.557-1.398 0-2.62-.286-3.666-.855-1.047-.57-1.857-1.396-2.433-2.478v12.164h-2.89v-26.23h2.89v2.555a6.134 6.134 0 0 1 2.468-2.274c1.034-.529 2.221-.793 3.561-.793 2.398 0 4.357.82 5.879 2.459 1.522 1.64 2.283 3.759 2.283 6.356zm-2.926.036c0-1.833-.524-3.308-1.57-4.425-1.046-1.116-2.409-1.674-4.089-1.674-1.704 0-3.064.537-4.08 1.613-1.017 1.075-1.526 2.536-1.526 4.38 0 1.87.544 3.4 1.631 4.593s2.46 1.789 4.116 1.789c1.61 0 2.932-.582 3.967-1.745 1.034-1.164 1.55-2.674 1.55-4.531z"/></g><g fill="#B4C8E8"><path d="M86.137 21.89c0 2.656-.758 4.837-2.273 6.54-1.517 1.705-3.456 2.557-5.818 2.557-1.399 0-2.62-.286-3.666-.855a5.918 5.918 0 0 1-2.433-2.478v2.786h-2.89V.648h2.89v15.495a6.134 6.134 0 0 1 2.468-2.274c1.034-.529 2.222-.793 3.56-.793 2.399 0 4.359.82 5.88 2.459 1.521 1.64 2.282 3.759 2.282 6.356zm-2.926.036c0-1.833-.523-3.308-1.569-4.425-1.046-1.116-2.409-1.674-4.09-1.674-1.704 0-3.064.537-4.08 1.613-1.017 1.075-1.525 2.536-1.525 4.38 0 1.87.544 3.4 1.63 4.593 1.087 1.193 2.46 1.789 4.117 1.789 1.61 0 2.931-.582 3.966-1.745 1.034-1.164 1.551-2.674 1.551-4.531zM106.428 21.961c0 2.503-.876 4.633-2.627 6.39-1.751 1.757-3.884 2.636-6.399 2.636-2.491 0-4.603-.876-6.337-2.627s-2.6-3.884-2.6-6.399.857-4.624 2.573-6.329c1.715-1.703 3.837-2.555 6.364-2.555 2.55 0 4.692.854 6.426 2.564 1.733 1.71 2.6 3.817 2.6 6.32zm-2.874 0c0-1.775-.588-3.24-1.763-4.398-1.174-1.157-2.626-1.736-4.354-1.736-1.74 0-3.19.579-4.354 1.736-1.163 1.157-1.745 2.623-1.745 4.398 0 1.786.59 3.279 1.771 4.478 1.182 1.199 2.624 1.798 4.328 1.798 1.74 0 3.194-.6 4.364-1.798 1.168-1.199 1.753-2.691 1.753-4.478zM126.718 21.961c0 2.503-.876 4.633-2.627 6.39-1.752 1.757-3.884 2.636-6.4 2.636-2.49 0-4.603-.876-6.336-2.627-1.734-1.751-2.6-3.884-2.6-6.399s.857-4.624 2.573-6.329c1.715-1.703 3.836-2.555 6.364-2.555 2.55 0 4.691.854 6.425 2.564 1.733 1.71 2.6 3.817 2.6 6.32zm-2.874 0c0-1.775-.589-3.24-1.763-4.398-1.175-1.157-2.626-1.736-4.354-1.736-1.74 0-3.19.579-4.354 1.736-1.164 1.157-1.746 2.623-1.746 4.398 0 1.786.591 3.279 1.772 4.478 1.181 1.199 2.624 1.798 4.328 1.798 1.739 0 3.193-.6 4.363-1.798 1.169-1.199 1.754-2.691 1.754-4.478zM144.592 30.44h-3.56l-7.74-8.884v8.884h-2.873V.65h2.873v20.448l7.228-7.51h3.437l-7.598 7.616z"/></g><g fill="#8AA4CE"><path d="M86.137 21.89c0 2.656-.758 4.837-2.273 6.54-1.517 1.705-3.456 2.557-5.818 2.557-1.399 0-2.62-.286-3.666-.855a5.918 5.918 0 0 1-2.433-2.478v2.786h-2.89V.648h2.89v15.495a6.134 6.134 0 0 1 2.468-2.274c1.034-.529 2.222-.793 3.56-.793 2.399 0 4.359.82 5.88 2.459 1.521 1.64 2.282 3.759 2.282 6.356zm-2.926.036c0-1.833-.523-3.308-1.569-4.425-1.046-1.116-2.409-1.674-4.09-1.674-1.704 0-3.064.537-4.08 1.613-1.017 1.075-1.525 2.536-1.525 4.38 0 1.87.544 3.4 1.63 4.593 1.087 1.193 2.46 1.789 4.117 1.789 1.61 0 2.931-.582 3.966-1.745 1.034-1.164 1.551-2.674 1.551-4.531zM106.428 21.961c0 2.503-.876 4.633-2.627 6.39-1.751 1.757-3.884 2.636-6.399 2.636-2.491 0-4.603-.876-6.337-2.627s-2.6-3.884-2.6-6.399.857-4.624 2.573-6.329c1.715-1.703 3.837-2.555 6.364-2.555 2.55 0 4.692.854 6.426 2.564 1.733 1.71 2.6 3.817 2.6 6.32zm-2.874 0c0-1.775-.588-3.24-1.763-4.398-1.174-1.157-2.626-1.736-4.354-1.736-1.74 0-3.19.579-4.354 1.736-1.163 1.157-1.745 2.623-1.745 4.398 0 1.786.59 3.279 1.771 4.478 1.182 1.199 2.624 1.798 4.328 1.798 1.74 0 3.194-.6 4.364-1.798 1.168-1.199 1.753-2.691 1.753-4.478zM126.718 21.961c0 2.503-.876 4.633-2.627 6.39-1.752 1.757-3.884 2.636-6.4 2.636-2.49 0-4.603-.876-6.336-2.627-1.734-1.751-2.6-3.884-2.6-6.399s.857-4.624 2.573-6.329c1.715-1.703 3.836-2.555 6.364-2.555 2.55 0 4.691.854 6.425 2.564 1.733 1.71 2.6 3.817 2.6 6.32zm-2.874 0c0-1.775-.589-3.24-1.763-4.398-1.175-1.157-2.626-1.736-4.354-1.736-1.74 0-3.19.579-4.354 1.736-1.164 1.157-1.746 2.623-1.746 4.398 0 1.786.591 3.279 1.772 4.478 1.181 1.199 2.624 1.798 4.328 1.798 1.739 0 3.193-.6 4.363-1.798 1.169-1.199 1.754-2.691 1.754-4.478zM144.592 30.44h-3.56l-7.74-8.884v8.884h-2.873V.65h2.873v20.448l7.228-7.51h3.437l-7.598 7.616z"/></g></g></g></svg>