<?xml version="1.0" encoding="UTF-8"?>
<svg width="8px" height="16px" viewBox="0 0 8 16" version="1.1" xmlns="http://www.w3.org/2000/svg" xmlns:xlink="http://www.w3.org/1999/xlink">
    <!-- Generator: Sketch 49.3 (51167) - http://www.bohemiancoding.com/sketch -->
    <title>Shape</title>
    <desc>Created with Sketch.</desc>
    <defs></defs>
    <g id="Design-V1" stroke="none" stroke-width="1" fill="none" fill-rule="evenodd">
        <g id="01.3-ShareCount-main-Active-table-(no-login)-" transform="translate(-946.000000, -587.000000)" fill="#437BB3" fill-rule="nonzero">
            <g id="Table-(non-login)" transform="translate(0.000000, 565.531250)">
                <g id="FB" transform="translate(946.000000, 19.447266)">
                    <g id="Fabook">
                        <g id="FB-icon" transform="translate(0.000000, 2.000000)">
                            <path d="M7.22011588,5.77390938 L4.86425647,5.77390938 L4.86425647,4.22881075 C4.86425647,3.64855133 5.24883627,3.51327045 5.51970617,3.51327045 C5.78995976,3.51327045 7.18221258,3.51327045 7.18221258,3.51327045 L7.18221258,0.962347736 L4.89260691,0.953411186 C2.3509289,0.953411186 1.77251842,2.85597181 1.77251842,4.07349967 L1.77251842,5.77390938 L0.302610064,5.77390938 L0.302610064,8.40248763 L1.77251842,8.40248763 C1.77251842,11.7758811 1.77251842,15.8404704 1.77251842,15.8404704 L4.86425647,15.8404704 C4.86425647,15.8404704 4.86425647,11.7358207 4.86425647,8.40248763 L6.9504786,8.40248763 L7.22011588,5.77390938 Z" id="Shape"></path>
                        </g>
                    </g>
                </g>
            </g>
        </g>
    </g>
</svg>