<?xml version="1.0" encoding="UTF-8"?>
<svg width="12px" height="16px" viewBox="0 0 12 16" version="1.1" xmlns="http://www.w3.org/2000/svg" xmlns:xlink="http://www.w3.org/1999/xlink">
    <!-- Generator: Sketch 49.3 (51167) - http://www.bohemiancoding.com/sketch -->
    <title>Shape</title>
    <desc>Created with Sketch.</desc>
    <defs></defs>
    <g id="Design-V1" stroke="none" stroke-width="1" fill="none" fill-rule="evenodd">
        <g id="01.3-ShareCount-main-Active-table-(no-login)-" transform="translate(-1043.000000, -587.000000)" fill="#C35450" fill-rule="nonzero">
            <g id="Table-(non-login)" transform="translate(0.000000, 565.531250)">
                <g id="Pinterest" transform="translate(1041.000000, 0.447266)">
                    <g id="Pins" transform="translate(2.000000, 19.000000)">
                        <path d="M6.60470134,2.57029063 C2.58624394,2.57029063 0.559860036,5.4511809 0.559860036,7.85409183 C0.559860036,9.30873437 1.11060107,10.6027688 2.29164777,11.0845932 C2.4853832,11.1644536 2.65900564,11.087551 2.71520371,10.873111 C2.75424657,10.7252214 2.84682549,10.3507648 2.88793881,10.1942976 C2.94443265,9.98222381 2.92254499,9.90827899 2.76607774,9.72282537 C2.42563578,9.32145288 2.20764645,8.80147289 2.20764645,8.06439091 C2.20764645,5.92708977 3.80692506,4.01369356 6.37192304,4.01369356 C8.64321219,4.01369356 9.89110501,5.40148998 9.89110501,7.25454722 C9.89110501,9.69354322 8.81180639,11.7518713 7.20986576,11.7518713 C6.32489414,11.7518713 5.66294009,11.0204091 5.87471806,10.122719 C6.12879247,9.05111061 6.62126498,7.89520515 6.62126498,7.12115076 C6.62126498,6.42902722 6.24947042,5.85166605 5.48074005,5.85166605 C4.57624699,5.85166605 3.84951728,6.78751172 3.84951728,8.04072856 C3.84951728,8.83903686 4.11926799,9.37912984 4.11926799,9.37912984 C4.11926799,9.37912984 3.19377459,13.3011632 3.03139177,13.9879627 C2.70840078,15.3559419 2.98288396,17.0324189 3.00625053,17.2016047 C3.01985637,17.3021696 3.14881614,17.3264235 3.20738044,17.250704 C3.29049442,17.1415615 4.36831415,15.8117378 4.73419313,14.4825057 C4.83801166,14.1065702 5.32900527,12.1579762 5.32900527,12.1579762 C5.62300989,12.7187738 6.48195294,13.2115421 7.39531938,13.2115421 C10.1138268,13.2115421 11.9586022,10.7332074 11.9586022,7.41574693 C11.958898,4.90665123 9.83401961,2.57029063 6.60470134,2.57029063 Z" id="Shape"></path>
                    </g>
                </g>
            </g>
        </g>
    </g>
</svg>