<?xml version="1.0" encoding="UTF-8"?>
<svg width="17px" height="14px" viewBox="0 0 17 14" version="1.1" xmlns="http://www.w3.org/2000/svg" xmlns:xlink="http://www.w3.org/1999/xlink">
    <!-- Generator: Sketch 49.3 (51167) - http://www.bohemiancoding.com/sketch -->
    <title>Combined Shape</title>
    <desc>Created with Sketch.</desc>
    <defs></defs>
    <g id="Design-V1" stroke="none" stroke-width="1" fill="none" fill-rule="evenodd">
        <g id="01.3-ShareCount-main-Active-table-(no-login)-" transform="translate(-1353.000000, -590.000000)" fill="#3D74D7">
            <g id="Table-(non-login)" transform="translate(0.000000, 565.531250)">
                <g id="SC-total" transform="translate(1353.000000, 19.000000)">
                    <g id="Total" transform="translate(0.000000, 0.447266)">
                        <g id="Sharecount-icon" transform="translate(0.000000, 5.000000)">
                            <path d="M15.319064,3.40610856 L7.1458999,3.40610856 C6.42818925,3.40610856 5.84008258,4.02116484 5.84008258,4.7714987 L5.84008258,10.9731712 C5.84008258,11.7230701 6.42860531,12.3383438 7.1458999,12.3383438 L10.882572,12.3383438 L12.7384261,12.3383438 L15.1746897,13.8675025 L14.8335171,12.3383438 L15.319064,12.3383438 C16.0365666,12.3383438 16.6244652,11.7232876 16.6244652,10.9731712 L16.6244652,4.77171619 C16.6244652,4.02094735 16.0365666,3.40610856 15.319064,3.40610856 Z M13.2855505,6.00748343 L14.3292474,6.00748343 C14.5753493,6.00748343 14.7765163,6.21822938 14.7765163,6.47486531 L14.7765163,10.8194071 L12.8382815,10.8194071 L12.8382815,6.47486531 C12.8382815,6.2177944 13.0394485,6.00748343 13.2855505,6.00748343 Z M8.11595345,8.3372157 L9.15944233,8.3372157 C9.40554427,8.3372157 9.60671129,8.54839662 9.60671129,8.80481506 L9.60671129,10.8194071 L7.6686845,10.8194071 L7.6686845,8.80481506 C7.6686845,8.54730918 7.86985151,8.3372157 8.11595345,8.3372157 Z M10.7005439,7.21127993 L11.7440328,7.21127993 C11.9899267,7.21127993 12.1910937,7.42180839 12.1910937,7.67866181 L12.1910937,10.8191896 L10.253483,10.8191896 L10.253483,7.67866181 C10.253483,7.4215909 10.454442,7.21127993 10.7005439,7.21127993 Z M1.93095191,0.774502841 L9.38390894,0.774502841 C9.98200114,0.774502841 10.4696283,1.28429489 10.4696283,1.90761572 L10.4696283,2.80584147 L7.1458999,2.80584147 C6.11114837,2.80584147 5.26591406,3.68971301 5.26591406,4.77128121 L5.26591406,8.20128565 L4.73293589,8.20128565 L2.54631078,9.49011999 L2.89372434,8.20150314 L1.93095191,8.20150314 C1.33389986,8.20150314 0.845232522,7.69084114 0.845232522,7.06578041 L0.845232522,1.90761572 C0.845232522,1.2840774 1.33306773,0.774502841 1.93095191,0.774502841 Z" id="Combined-Shape"></path>
                        </g>
                    </g>
                </g>
            </g>
        </g>
    </g>
</svg>