<?xml version="1.0" encoding="UTF-8"?>
<svg width="16px" height="12px" viewBox="0 0 16 12" version="1.1" xmlns="http://www.w3.org/2000/svg" xmlns:xlink="http://www.w3.org/1999/xlink">
    <!-- Generator: Sketch 49.3 (51167) - http://www.bohemiancoding.com/sketch -->
    <title>icon_2_</title>
    <desc>Created with Sketch.</desc>
    <defs></defs>
    <g id="Design-V1" stroke="none" stroke-width="1" fill="none" fill-rule="evenodd">
        <g id="01.3-ShareCount-main-Active-table-(no-login)-" transform="translate(-1139.000000, -591.000000)" fill="#D7973B" fill-rule="nonzero">
            <g id="Table-(non-login)" transform="translate(0.000000, 565.531250)">
                <g id="Stumbles" transform="translate(1139.000000, 3.447266)">
                    <g id="Stubbless" transform="translate(0.000000, 16.000000)">
                        <g id="Stumbless-Icon" transform="translate(0.000000, 6.000000)">
                            <path d="M8.73257271,4.43157873 L9.76200629,4.91100848 L11.2964154,4.45312337 L11.2964154,3.38811036 C11.2421537,1.57605241 9.76080595,0.122312578 7.93529799,0.122312578 C6.11625343,0.122312578 4.63887605,1.56537243 4.57408824,3.36844318 L4.57408824,8.23319166 C4.57408824,8.67344095 4.21709359,9.03055871 3.77675197,9.03055871 C3.33641035,9.03055871 2.97938492,8.67344095 2.97938492,8.23319166 L2.97938492,6.17146214 L0.401845984,6.17146214 C0.401845984,6.17146214 0.401845984,8.23657725 0.401845984,8.26067646 C0.401845984,10.1208713 1.90972442,11.6286882 3.76988846,11.6286882 C5.61370936,11.6286882 7.10816856,10.1466325 7.13417602,8.30918268 L7.13793094,3.5041744 C7.13793094,3.06377122 7.49492559,2.70686891 7.93529799,2.70686891 C8.37557806,2.70686891 8.73260349,3.06374045 8.73260349,3.5041744 L8.73260349,4.43157873 L8.73257271,4.43157873 Z M12.8911495,6.17143136 L12.8911495,8.3293423 C12.8911495,8.7697147 12.5341549,9.12674013 12.0937825,9.12674013 C11.6534408,9.12674013 11.2964154,8.7697147 11.2964154,8.3293423 L11.2964154,6.21267396 L9.76200629,6.6706514 L8.73257271,6.19112932 L8.73257271,8.29065429 C8.74873119,10.1366912 10.2506387,11.6285958 12.1006767,11.6285958 C13.9607792,11.6285958 15.46875,10.1208097 15.46875,8.26058413 C15.46875,8.23651569 15.46875,6.17136981 15.46875,6.17136981 L12.8911495,6.17136981 L12.8911495,6.17143136 Z" id="icon_2_"></path>
                        </g>
                    </g>
                </g>
            </g>
        </g>
    </g>
</svg>