<svg viewBox="0 0 13 13" xmlns="http://www.w3.org/2000/svg">
    <path d="M10.292 7.217a4.512 4.512 0 0 0 .04-2.576l1.474 1.475A3.91 3.91 0 0 1 6.51 11.86c-.013-.01-.023-.022-.036-.034-.065-.057-.122-.116-.185-.179l-1.46-1.475-.305-.335C3.37 8.683 2.996 6.989 3.737 5.57c0-.173.095-.34.193-.503.001-.003-.057-.005-.055-.008.03-.051.063-.102.096-.152l.015-.022c.03-.045.062-.09.095-.135l.03-.039.088-.114.058-.067c.023-.027.046-.055.07-.081a3.929 3.929 0 0 1 .746-.641L6.436 5.17c-.241.1-.467.248-.663.444-.024.024-.044.051-.066.076-.092.1-.146.233-.237.324-.044.045-.067.11-.095.169-.001.001-.005 0-.005.002a2.032 2.032 0 0 0-.073.173l-.005.013c-.02.056-.038.112-.053.17l-.006.025a2.001 2.001 0 0 0-.034.16l-.006.043c-.007.049-.013.098-.017.147-.002.02-.002.041-.003.062a2.05 2.05 0 0 0 .598 1.551l1.604 1.604.207.206c.043.044.088.083.134.122l.056.045a2.55 2.55 0 0 0 .266.176 2.065 2.065 0 0 0 2.46-.343 2.065 2.065 0 0 0 0-2.916l-.206-.207zM2.86 5.618a4.512 4.512 0 0 0-.04 2.576L1.345 6.72A3.911 3.911 0 0 1 6.641.975c.014.011.023.023.036.034.066.058.123.117.185.18l1.46 1.474.306.335c1.153 1.154 1.528 2.848.787 4.267 0 .172-.096.34-.193.503-.001.003.057.005.055.008a4.14 4.14 0 0 1-.096.152l-.015.021a3.75 3.75 0 0 1-.095.136l-.03.038c-.029.039-.058.077-.089.114-.018.023-.038.045-.058.068-.023.026-.045.054-.07.08a3.905 3.905 0 0 1-.746.64L6.717 7.66c.241-.1.467-.251.663-.447.024-.024.043-.06.066-.085.091-.1.146-.093.236-.34.045 0 .067-.094.095-.152.001-.002.005.016.006.014.026-.056.05-.114.072-.173l.005-.013c.02-.056.038-.112.053-.17l.006-.025c.014-.053.025-.107.034-.16l.006-.043c.007-.049.014-.098.017-.147.002-.02.002-.041.003-.062a2.05 2.05 0 0 0-.598-1.551L5.776 2.702l-.206-.207a1.993 1.993 0 0 0-.269-.223 2.065 2.065 0 0 0-2.648.224 2.065 2.065 0 0 0 0 2.916l.207.206z" fill-rule="nonzero"/>
</svg>