<svg xmlns="http://www.w3.org/2000/svg" width="17" height="17"><path fill="#5CD8A1" fill-rule="nonzero" d="M15.411 4.463a7.958 7.958 0 0 0-2.908-2.908A7.817 7.817 0 0 0 8.492.483c-1.45 0-2.787.357-4.012 1.072a7.956 7.956 0 0 0-2.908 2.908A7.817 7.817 0 0 0 .5 8.474c0 1.45.357 2.787 1.072 4.012a7.958 7.958 0 0 0 2.908 2.908 7.818 7.818 0 0 0 4.012 1.072c1.45 0 2.787-.357 4.011-1.072a7.956 7.956 0 0 0 2.908-2.908 7.818 7.818 0 0 0 1.072-4.012c0-1.45-.357-2.787-1.072-4.011zm-1.738 2.794l-5.65 5.65a.651.651 0 0 1-.478.198.64.64 0 0 1-.469-.198L3.31 9.14a.636.636 0 0 1-.187-.468c0-.194.062-.354.187-.479l.947-.936a.64.64 0 0 1 .469-.198.64.64 0 0 1 .468.198l2.352 2.352 4.245-4.235a.64.64 0 0 1 .468-.198.64.64 0 0 1 .469.198l.947.936a.647.647 0 0 1 .187.479.634.634 0 0 1-.188.468z"/></svg>